<svg width="38" height="38" viewBox="0 0 38 38" fill="none" xmlns="http://www.w3.org/2000/svg">
<path d="M0.363485 0.111218C0.259629 0.170565 0.133519 0.311511 0.0815912 0.422785C0.0222452 0.578568 -9.57772e-06 1.8916 0.0148269 5.32625L0.0370817 10.0294L0.244793 10.2075L0.452504 10.3855H5.22244H9.99238L10.1927 10.1926L10.3855 9.99233V5.22239V0.452458L10.2075 0.244747L10.0295 0.0370359L5.28921 0.0221996C1.29818 0.00736237 0.526686 0.0221996 0.363485 0.111218ZM8.90189 5.19272V8.90185H5.19277H1.48364V5.19272V1.48359H5.19277H8.90189V5.19272Z" fill="white"/>
<path d="M14.154 0.118636C14.0427 0.177982 13.9166 0.289256 13.8721 0.370856C13.8276 0.459875 13.7979 2.14382 13.7979 5.22239V9.92557L13.9908 10.1555L14.1837 10.3855H18.9684H23.7532L23.9683 10.1704L24.1835 9.95524V5.22981C24.1835 2.1364 24.1538 0.459875 24.1093 0.363439C23.909 -5.62668e-05 23.9238 -5.62668e-05 18.9759 -5.62668e-05C15.0442 0.00736237 14.3246 0.0221987 14.154 0.118636ZM22.6998 5.19272V8.90185H18.9907H15.2816V5.19272V1.48359H18.9907H22.6998V5.19272Z" fill="white"/>
<path d="M19.3913 4.31741L18.4788 5.21502L18.1079 4.87378C17.7889 4.57705 17.6925 4.52512 17.4329 4.52512C17.01 4.52512 16.691 4.83669 16.691 5.23727C16.691 5.49691 16.7578 5.58593 17.418 6.24616C18.1153 6.94347 18.1599 6.97314 18.4714 6.97314C18.7978 6.97314 18.8127 6.96573 20.0441 5.72688C21.2384 4.53254 21.2904 4.47319 21.2904 4.1913C21.2829 3.73879 20.9565 3.41238 20.504 3.41238C20.3482 3.41238 20.1109 3.60526 19.3913 4.31741Z" fill="white"/>
<path d="M27.9965 0.0741272C27.5811 0.237329 27.5959 0.0741272 27.5959 5.23723V9.99233L27.7888 10.1926L27.9891 10.3855H32.759H37.5289L37.7366 10.2075L37.9444 10.0294L37.9666 5.32625C37.9814 1.88418 37.9592 0.578568 37.8998 0.422785C37.7218 -0.00747395 37.8182 -5.53131e-05 32.7738 0.00736237C30.2294 0.00736237 28.0781 0.0370359 27.9965 0.0741272ZM36.4978 5.19272V8.90185H32.7887H29.0795V5.19272V1.48359H32.7887H36.4978V5.19272Z" fill="white"/>
<path d="M18.2711 12.0473C17.5887 12.2698 17.0397 12.7669 16.7133 13.4642L16.5056 13.9093L16.4833 18.9092L16.4611 23.9091L15.5932 23.056C14.562 22.0471 14.2875 21.8542 13.6496 21.691C12.7297 21.4611 11.7505 21.7652 11.0977 22.4848C10.6081 23.0263 10.4375 23.5382 10.4746 24.3319C10.5265 25.3482 10.6007 25.4521 13.0561 27.9298C15.2148 30.1107 15.4522 30.3852 15.8602 31.2086C16.3721 32.2175 16.4166 32.5068 16.4462 35.0513C16.4611 36.483 16.5056 37.4326 16.5575 37.5587C16.7281 38.0038 16.3498 37.9815 24.6953 37.9815H32.3436L32.581 37.7664L32.8258 37.5512V29.8808C32.8258 22.7593 32.8183 22.188 32.6922 21.8468C32.5439 21.4165 32.1729 20.9195 31.7724 20.6154C31.446 20.3706 30.6745 20.1035 30.2739 20.1035C30.0217 20.1035 29.4208 20.237 29.1389 20.3557C29.0424 20.4002 28.9757 20.3335 28.8273 20.0442C28.7235 19.8439 28.4564 19.5101 28.2264 19.3023C27.5143 18.6495 26.4238 18.4418 25.5633 18.8053C25.4075 18.8721 25.274 18.9166 25.2666 18.9018C25.2591 18.8869 25.1998 18.7534 25.1256 18.5976C24.9327 18.1748 24.3615 17.6036 23.9164 17.3959C23.2859 17.0991 22.455 17.0695 21.7874 17.3291C21.6835 17.3662 21.6687 17.1733 21.6464 15.6377C21.6242 13.9464 21.6168 13.9019 21.4239 13.4864C21.1643 12.9301 20.6969 12.433 20.1925 12.1882C19.7029 11.9509 18.783 11.8767 18.2711 12.0473ZM19.6584 13.5903C19.7919 13.6867 19.9625 13.8796 20.0367 14.0205C20.1702 14.2654 20.1776 14.5695 20.1776 19.8661C20.1776 25.8601 20.1702 25.7636 20.5411 25.9639C20.8008 26.0975 21.1939 26.053 21.4165 25.8601L21.6242 25.682L21.6613 22.5293C21.6984 19.473 21.7058 19.3691 21.8542 19.1614C22.3734 18.4641 23.2636 18.4492 23.7161 19.1317C23.8868 19.3839 23.8868 19.3914 23.8868 22.3735C23.8868 24.0574 23.9164 25.4372 23.9535 25.5411C24.1464 26.0455 24.725 26.2013 25.1256 25.8601L25.3333 25.682L25.3704 23.2711L25.4075 20.8602L25.6375 20.5709C26.2383 19.829 27.3362 20.0516 27.5885 20.9566C27.6404 21.1421 27.6701 22.0768 27.6701 23.4269V25.6079L27.8852 25.823C28.308 26.2458 28.9905 26.0307 29.1092 25.4372C29.1315 25.3037 29.1537 24.5619 29.1537 23.7756C29.1537 22.418 29.1611 22.3364 29.3243 22.1064C29.7843 21.424 30.667 21.4388 31.1863 22.1361C31.3421 22.3364 31.3421 22.4032 31.3644 29.4208L31.3792 36.4979H24.6657H17.9522V34.9103C17.9522 32.5884 17.7741 31.6463 17.0991 30.3704C16.5946 29.406 16.2608 29.0128 14.065 26.7948L11.9879 24.7028L11.9582 24.2726C11.9211 23.731 12.1214 23.3972 12.6258 23.1895C13.2787 22.9225 13.338 22.9595 15.1332 24.7399C16.0086 25.6079 16.8023 26.3571 16.8913 26.4016C17.2326 26.5797 17.7074 26.4164 17.8631 26.0752C17.9299 25.9343 17.9522 24.4209 17.9522 20.0813C17.9522 14.703 17.9596 14.2579 18.0857 14.0205C18.3676 13.4493 19.1391 13.2416 19.6584 13.5903Z" fill="white"/>
</svg>
