<svg width="39" height="38" viewBox="0 0 39 38" fill="none" xmlns="http://www.w3.org/2000/svg">
<path d="M2.59717 0.120121C1.31361 0.427876 0.285266 1.56131 0.0600805 2.90491C-0.23266 4.64634 0.915784 6.38778 2.6347 6.79311C3.02502 6.88318 3.71559 6.9057 6.2827 6.9057H9.4503L9.27015 7.22847C8.73722 8.17425 8.73722 9.54037 9.27015 10.4861L9.4503 10.8089H8.30936C7.55875 10.8089 7.00329 10.8464 6.68803 10.9215C5.46453 11.2142 4.4587 12.2201 4.16596 13.4436C3.88823 14.6145 4.15845 15.6729 4.96912 16.5511L5.34443 16.964L4.96912 17.3768C3.75312 18.7129 3.75312 20.627 4.96912 21.9556L5.34443 22.3684L4.96912 22.7813C3.74561 24.1174 3.74561 26.0239 4.96912 27.36L5.34443 27.7729L4.96912 28.1857C4.15845 29.0639 3.88823 30.1223 4.16596 31.2933C4.4587 32.5168 5.46453 33.5226 6.68803 33.8153C7.08586 33.9054 7.91904 33.9279 11.7322 33.9279H16.2959L16.9865 34.5509C18.6078 35.9996 20.1766 36.9004 22.0907 37.4558C26.5794 38.7619 31.3683 37.5384 34.6861 34.2282C38.9796 29.9421 39.6476 23.1941 36.2699 18.1424C34.7236 15.823 32.4267 14.0591 29.762 13.1358C29.154 12.9257 29.0714 12.8731 28.9138 12.6104L28.7412 12.3101H29.8596C30.4751 12.3101 31.1657 12.2726 31.3833 12.2351C31.9838 12.1225 32.5618 11.8072 33.0722 11.3193C34.4759 9.97573 34.4984 7.80644 33.1248 6.43281C32.6519 5.95992 31.9763 5.59212 31.3833 5.47953C31.1582 5.43449 29.6119 5.40447 27.8329 5.40447H24.6878L24.8755 5.0817C25.2733 4.39864 25.3859 3.51291 25.1832 2.63469C24.883 1.37365 23.7721 0.307777 22.5261 0.0750847C22.2708 0.0300484 18.6829 2.28882e-05 12.5804 0.00753021C4.59381 0.0150337 2.96497 0.0300484 2.59717 0.120121ZM22.7062 1.70392C23.059 1.89158 23.4268 2.25938 23.6145 2.62718C23.712 2.81484 23.7571 3.04753 23.7571 3.45286C23.7571 3.8582 23.712 4.09089 23.6145 4.27854C23.4268 4.64634 23.059 5.01414 22.7062 5.2018L22.406 5.36694H12.6479H2.88991L2.58966 5.2018C2.23687 5.01414 1.86907 4.64634 1.68141 4.27854C1.58383 4.09089 1.5388 3.8582 1.5388 3.45286C1.5388 2.82985 1.65139 2.54462 2.05672 2.11676C2.29692 1.86155 2.58966 1.6739 2.92744 1.56881C3.03253 1.53879 7.45366 1.51627 12.7605 1.52378L22.406 1.53879L22.7062 1.70392ZM31.5635 7.10837C31.9163 7.29602 32.2841 7.66383 32.4717 8.03163C32.5693 8.21928 32.6144 8.45197 32.6144 8.85731C32.6144 9.26264 32.5693 9.49533 32.4717 9.68299C32.2841 10.0508 31.9163 10.4186 31.5635 10.6062L31.2632 10.7714H21.5052H11.7472L11.4469 10.6062C11.0942 10.4186 10.7264 10.0508 10.5387 9.68299C10.4411 9.49533 10.3961 9.26264 10.3961 8.85731C10.3961 8.2343 10.5087 7.94906 10.914 7.52121C11.1542 7.266 11.4469 7.07834 11.7847 6.97326C11.8898 6.94323 16.3109 6.92071 21.6178 6.92822L31.2632 6.94323L31.5635 7.10837ZM26.4218 12.3852C26.5419 12.4227 26.3317 12.4453 25.8213 12.4528C22.5411 12.4903 19.7037 13.5412 17.2717 15.6354L16.5887 16.2209L11.7697 16.1983C6.98828 16.1758 6.94324 16.1758 6.64299 16.0107C6.2902 15.823 5.9224 15.4552 5.73475 15.0874C5.63717 14.8998 5.59213 14.6671 5.59213 14.2618C5.59213 13.6387 5.70472 13.3535 6.11006 12.9257C6.35025 12.6704 6.64299 12.4828 6.98077 12.3777C7.22848 12.3026 26.1816 12.3101 26.4218 12.3852ZM27.8855 14.1867C32.3817 15.1325 35.7444 18.5027 36.7127 23.044C36.8553 23.697 36.8854 24.0648 36.8854 25.2208C36.8854 26.3767 36.8553 26.7445 36.7127 27.3976C35.7444 31.9538 32.4042 35.294 27.8479 36.2623C26.7145 36.51 24.6278 36.51 23.4944 36.2623C21.1749 35.7669 19.2684 34.7311 17.6621 33.0947C16.9265 32.3366 16.7913 32.179 16.3109 31.4509C15.5003 30.2424 14.9523 28.9213 14.6296 27.3976C14.4044 26.3542 14.3819 24.26 14.5845 23.2316C15.2826 19.6662 17.4819 16.7463 20.6795 15.1475C21.7905 14.5845 23.0065 14.2167 24.32 14.0366C25.1157 13.924 27.0298 14.0065 27.8855 14.1867ZM15.3126 17.7446C15.3126 17.7521 15.1625 17.9998 14.9673 18.2851C14.5095 18.9906 13.9615 20.0865 13.6613 20.9272L13.4136 21.6253L10.1784 21.6028C7.02581 21.5803 6.93574 21.5728 6.64299 21.4151C6.2902 21.2275 5.9224 20.8597 5.73475 20.4919C5.63717 20.3042 5.59213 20.0715 5.59213 19.6662C5.59213 19.0432 5.70472 18.758 6.11006 18.3301C6.35025 18.0749 6.64299 17.8872 6.98077 17.7821C7.16092 17.7296 15.3126 17.6846 15.3126 17.7446ZM13.0082 23.6595C12.9332 24.3275 12.9332 26.4443 13.0082 26.782L13.0608 27.0298L9.99825 27.0072C7.03332 26.9847 6.93574 26.9772 6.64299 26.8196C6.2902 26.6319 5.9224 26.2641 5.73475 25.8963C5.63717 25.7087 5.59213 25.476 5.59213 25.0706C5.59213 24.4476 5.70472 24.1624 6.11006 23.7345C6.35025 23.4793 6.64299 23.2917 6.98077 23.1866C7.08586 23.1566 8.49702 23.1265 10.1184 23.1265L13.0683 23.119L13.0082 23.6595ZM13.5787 29.2516C13.8489 30.0923 14.3218 31.1056 14.7722 31.8487C14.9448 32.1264 15.0874 32.3741 15.0874 32.3967C15.0874 32.4117 13.2559 32.4192 11.0191 32.4117C7.00329 32.3892 6.93574 32.3892 6.64299 32.224C6.2902 32.0364 5.9224 31.6686 5.73475 31.3008C5.63717 31.1131 5.59213 30.8804 5.59213 30.4751C5.59213 29.8521 5.70472 29.5668 6.11006 29.139C6.35025 28.8838 6.64299 28.6961 6.98077 28.591C7.08586 28.561 8.55707 28.531 10.2535 28.531L13.3385 28.5235L13.5787 29.2516Z" fill="#FEFEFE"/>
<path d="M26.4292 15.5677C26.3317 15.6203 26.2041 15.7479 26.1515 15.8455C25.7387 16.5961 26.692 17.3242 27.33 16.7537C27.5251 16.5736 27.5702 16.4835 27.5702 16.2133C27.5702 15.943 27.5251 15.853 27.33 15.6728C27.0673 15.4401 26.7295 15.4026 26.4292 15.5677Z" fill="#FEFEFE"/>
<path d="M29.0864 16.5361C28.9588 16.6412 28.8763 16.8063 28.8462 17.0015C28.8012 17.3693 28.9888 17.6395 29.4467 17.8797C31.4809 18.908 33.0572 20.9197 33.6802 23.2541C33.8528 23.8996 33.8754 24.1248 33.8754 25.2207C33.8754 26.3166 33.8528 26.5418 33.6802 27.1949C33.5751 27.6002 33.3574 28.2082 33.2073 28.546C32.862 29.3191 32.832 29.4992 32.9821 29.7845C33.1323 30.0697 33.3124 30.1748 33.6427 30.1748C34.018 30.1748 34.2206 29.9872 34.4909 29.3867C35.7369 26.6619 35.7219 23.6219 34.4533 20.9797C33.6126 19.2308 32.0814 17.6095 30.3775 16.6712C29.7244 16.3109 29.3867 16.2734 29.0864 16.5361Z" fill="#FEFEFE"/>
<path d="M25.4009 19.0583C25.1156 19.1784 24.9205 19.5087 24.9205 19.8614C24.9205 20.1317 24.898 20.1917 24.7854 20.1917C24.5227 20.1917 23.7495 20.6346 23.3892 20.9949C23.1866 21.1975 22.9238 21.5729 22.7887 21.8431C22.5786 22.2784 22.556 22.406 22.556 23.0065C22.556 23.622 22.5786 23.7346 22.7962 24.1775C23.2841 25.1683 24.2299 25.7838 25.4384 25.8964C26.2116 25.9715 26.6844 26.1516 26.9697 26.4894C27.5176 27.1499 27.3825 28.0131 26.6394 28.501C26.3542 28.6887 26.2566 28.7112 25.6636 28.7112C25.0556 28.7112 24.988 28.6962 24.6803 28.486C24.32 28.2308 24.0197 27.7654 24.0197 27.4577C24.0197 26.9548 23.682 26.6095 23.2091 26.6245C22.9989 26.632 22.8788 26.6921 22.7212 26.8797C22.511 27.1049 22.5035 27.1499 22.541 27.5853C22.6161 28.5536 23.2466 29.4393 24.1924 29.9122C24.4776 30.0548 24.7629 30.1749 24.8154 30.1749C24.8905 30.1749 24.9205 30.2725 24.9205 30.4752C24.9205 30.888 25.2282 31.2333 25.6111 31.2483C26.0915 31.2633 26.4217 30.918 26.4217 30.3926C26.4217 30.2575 26.4593 30.1749 26.5268 30.1749C26.5794 30.1749 26.8646 30.0548 27.1498 29.9122C27.7803 29.597 28.2983 29.0715 28.5835 28.4635C28.7561 28.1032 28.7862 27.9381 28.7862 27.3601C28.7862 26.7821 28.7561 26.617 28.5835 26.2492C28.1181 25.2509 27.1798 24.5978 25.9939 24.4627C25.1757 24.3651 24.8755 24.2826 24.5527 24.0349C24.2675 23.8247 24.0273 23.3443 24.0197 22.9915C24.0122 21.6554 26.0614 21.0624 26.9697 22.1358C27.1648 22.376 27.2774 22.6537 27.36 23.1341C27.4351 23.6145 28.013 23.8772 28.4559 23.6446C29.0864 23.3068 28.8462 21.9557 27.9905 21.0549C27.6077 20.6496 26.8496 20.1917 26.5568 20.1917C26.4442 20.1917 26.4217 20.1317 26.4217 19.8539C26.4217 19.291 25.8738 18.8631 25.4009 19.0583Z" fill="#FEFEFE"/>
<path d="M17.2192 20.4542C16.8739 20.807 16.3184 22.2332 16.0857 23.4042C15.9056 24.3124 15.9056 26.219 16.0932 27.0897C16.4986 28.9812 17.2867 30.52 18.5252 31.8336C19.5611 32.9445 21.0623 33.9804 21.7229 34.0554C22.1432 34.108 22.4359 33.8753 22.496 33.4399C22.541 33.0721 22.3534 32.8019 21.8955 32.5617C19.8613 31.5333 18.285 29.5217 17.662 27.1873C17.4894 26.5417 17.4669 26.3166 17.4669 25.2207C17.4669 24.1248 17.4894 23.8996 17.662 23.2465C17.7671 22.8412 17.9848 22.2332 18.1349 21.8954C18.285 21.5576 18.4201 21.1898 18.4427 21.0848C18.4877 20.8521 18.3 20.4542 18.0974 20.3416C17.8272 20.199 17.4218 20.2516 17.2192 20.4542Z" fill="#FEFEFE"/>
<path d="M24.0123 33.6876C23.8171 33.8678 23.7721 33.9579 23.7721 34.2281C23.7721 34.4983 23.8171 34.5884 24.0123 34.7685C24.3876 35.1063 25.0106 35.0012 25.2058 34.5659C25.5586 33.7927 24.6428 33.1247 24.0123 33.6876Z" fill="#FEFEFE"/>
</svg>
