<svg width="38" height="38" viewBox="0 0 38 38" fill="none" xmlns="http://www.w3.org/2000/svg">
<path d="M24.369 0.0443497C23.2859 0.333662 22.3438 0.622974 22.1658 0.711994C21.7503 0.927122 21.3127 1.40189 21.0975 1.87666C20.875 2.36626 20.8305 2.88554 20.9418 3.82024L20.9937 4.26534L20.5412 4.63625C20.2964 4.83654 19.9032 5.22229 19.6807 5.48935L19.2652 5.97153H18.2193C17.0249 5.97153 16.7356 6.06055 16.157 6.58725C15.7267 6.98042 15.5709 7.32908 15.2445 8.53083C15.0072 9.38393 14.9775 9.6139 14.9997 10.0887C15.0665 11.1198 15.5487 11.7355 16.7504 12.3141C17.24 12.5441 17.4478 12.6851 17.4626 12.7889C17.6035 13.5233 17.7 13.9239 17.878 14.4432L18.0783 15.0515L17.6555 15.682C17.1065 16.4832 16.9582 16.9209 17.0027 17.5885C17.062 18.3823 17.2846 18.7458 18.3379 19.7843C19.102 20.5261 19.3246 20.6968 19.6807 20.8303C20.5634 21.1641 21.3275 21.0083 22.3512 20.2962L22.9298 19.8956L23.464 20.0811C23.7607 20.1849 24.2948 20.3259 24.6583 20.4075C25.0144 20.4816 25.3259 20.5558 25.3408 20.5707C25.3556 20.5855 25.5337 20.9267 25.7339 21.3347C26.3274 22.5588 27.0618 23.0484 28.1894 22.9742C28.857 22.9371 30.5261 22.4771 30.9193 22.2249C31.2902 21.995 31.6611 21.5647 31.854 21.1493C31.9875 20.8526 32.0098 20.6819 32.0024 19.7769L31.9875 18.7458L32.262 18.5158C32.6329 18.2042 33.1522 17.6775 33.4638 17.3066L33.7234 16.9951L34.4875 17.0692C35.6447 17.1805 36.342 16.9506 36.9355 16.2755C37.2767 15.8897 37.4177 15.5485 37.7293 14.3393C37.9444 13.5085 37.9889 13.234 37.9518 12.8853C37.8554 11.9061 37.3435 11.2682 36.2159 10.7266L35.4815 10.378L35.3925 9.84386C35.3406 9.55455 35.1996 9.01302 35.0809 8.63469L34.851 7.95221L35.259 7.37358C35.8154 6.57241 35.9415 6.24601 35.9415 5.56353C35.934 4.73269 35.7115 4.32468 34.6878 3.29354C33.7976 2.40335 33.3377 2.12146 32.67 2.03244C32.0172 1.95084 31.5202 2.10662 30.7264 2.64816L30.0217 3.12292L29.3392 2.90038C28.9683 2.77427 28.4268 2.64074 28.1375 2.58881L27.6033 2.49979L27.2547 1.76538C26.8615 0.949377 26.4238 0.467192 25.8452 0.21497C25.5188 0.0666046 24.6583 -0.0298328 24.369 0.0443497ZM25.1479 2.00277C25.2073 2.03986 25.4743 2.51463 25.7414 3.05616C26.0307 3.64962 26.2977 4.09472 26.409 4.17632C26.5277 4.2505 26.8986 4.35435 27.3363 4.42112C28.1968 4.54723 28.6938 4.68818 29.3837 4.97749C30.1404 5.29647 30.2888 5.27422 31.1344 4.69559C31.535 4.42854 31.943 4.14664 32.0395 4.06504C32.3807 3.8054 32.5439 3.87959 33.3228 4.6585C34.1017 5.43742 34.1759 5.60062 33.9163 5.94186C33.8347 6.0383 33.5528 6.4463 33.2857 6.84689C32.7145 7.68515 32.6848 7.84094 32.9816 8.55309C33.2635 9.23557 33.4489 9.89579 33.5676 10.6821C33.627 11.0827 33.7308 11.461 33.805 11.5723C33.8866 11.6836 34.3243 11.9432 34.9177 12.2325C35.5409 12.5441 35.9266 12.7741 35.986 12.8853C36.0602 13.0263 36.0379 13.1969 35.8302 13.9758C35.6818 14.5396 35.5335 14.955 35.4519 15.0292C35.2887 15.1776 35.2367 15.1776 33.8866 15.096L32.8703 15.0366L32.5884 15.3334C32.4326 15.4892 32.1285 15.8526 31.9059 16.1271C31.6908 16.4016 31.2012 16.8764 30.8229 17.1731C29.9401 17.8778 29.9401 17.8927 30.0588 19.2725C30.1404 20.3036 30.1404 20.3333 29.992 20.4816C29.8362 20.6374 28.3971 21.0677 28.0336 21.0677C27.7665 21.0677 27.6701 20.9342 27.1657 19.8808C26.6464 18.7977 26.5574 18.7309 25.682 18.6197C24.9624 18.5232 24.369 18.3749 23.7829 18.1301C23.0114 17.8111 22.9224 17.7888 22.6776 17.8333C22.5441 17.8556 22.0471 18.1449 21.5871 18.4713C20.9937 18.8867 20.6747 19.0648 20.5263 19.0648C20.3483 19.0648 20.1703 18.9312 19.6139 18.3674C19.0501 17.8111 18.9166 17.633 18.9166 17.455C18.9166 17.3066 19.0946 16.9876 19.51 16.3942C19.8364 15.9342 20.1257 15.4372 20.148 15.3037C20.1851 15.1108 20.1257 14.8809 19.8958 14.2948C19.562 13.464 19.4655 13.0856 19.3617 12.2548C19.2504 11.424 19.1762 11.3349 18.1006 10.8157C17.0472 10.3112 16.9136 10.2148 16.9136 9.94772C16.9136 9.58423 17.3439 8.14508 17.4997 7.9893C17.6481 7.84094 17.6777 7.84094 18.7089 7.92254C19.51 7.99672 19.829 7.99672 20.0145 7.92995C20.1851 7.87061 20.4299 7.63322 20.8156 7.15104C21.1198 6.76529 21.6094 6.26085 21.9061 6.02346C22.1954 5.7935 22.5515 5.48193 22.6925 5.34098L22.9447 5.08876L22.8853 4.07988C22.8037 2.72976 22.8037 2.67783 22.9669 2.52205C23.1005 2.38852 24.5693 1.94342 24.8883 1.936C24.9699 1.936 25.0886 1.96568 25.1479 2.00277Z" fill="white"/>
<path d="M28.1745 9.25049C27.7517 9.56206 26.9727 10.2668 26.4312 10.8083L25.452 11.8024L25.133 11.5205C24.1909 10.6748 23.7013 10.4671 23.2191 10.7193C22.8704 10.8973 22.6998 11.1792 22.6998 11.565C22.6998 12.0027 22.7963 12.1362 23.4862 12.6555C23.8126 12.9003 24.1686 13.2563 24.3615 13.5308C24.8808 14.2504 25.0217 14.3542 25.4817 14.3542C25.949 14.3542 26.0232 14.3023 26.6538 13.4641C27.2398 12.6926 28.5825 11.3499 29.3614 10.7638C29.7027 10.5042 30.0439 10.1926 30.1255 10.0591C30.3035 9.76235 30.3035 9.36918 30.1255 9.09471C29.9252 8.79798 29.7027 8.6867 29.2872 8.67929C28.9683 8.67929 28.8792 8.72379 28.1745 9.25049Z" fill="white"/>
<path d="M11.6763 10.4226C11.3351 10.5784 11.209 10.8306 11.0309 11.7356L10.8677 12.5516L10.2743 12.789C9.94788 12.9225 9.59181 13.0709 9.48795 13.1228C9.30991 13.2118 9.24315 13.1822 8.47907 12.6629C7.56663 12.0472 7.1512 11.8988 6.40938 11.9581C5.66013 12.0101 5.22246 12.2697 4.23583 13.2563C3.14535 14.3468 2.93763 14.7252 2.93763 15.6153C2.93022 16.3498 3.04149 16.6391 3.68688 17.5738C3.97619 17.9892 4.15423 18.3156 4.12456 18.3898C4.10972 18.4565 3.96135 18.82 3.79815 19.2058L3.50884 19.9105L2.61865 20.0737C1.56526 20.2666 1.10533 20.4817 0.62314 21.0158C0.0964439 21.6019 -0.0148299 22.0989 0.0148431 23.679C0.0370979 24.9623 0.0370979 24.9698 0.2819 25.4594C0.689904 26.2976 1.24627 26.676 2.37385 26.8911C3.63495 27.1285 3.47175 27.0172 3.84266 27.9222L4.16906 28.7234L3.67946 29.4355C3.02665 30.3999 2.93763 30.6225 2.93763 31.342C2.93022 32.2396 3.16018 32.6625 4.28776 33.7678C5.38566 34.8583 5.74915 35.0512 6.63934 35.0437C7.35891 35.0437 7.58146 34.9547 8.54583 34.2945L9.2654 33.8049L10.0666 34.1387L10.8677 34.4725L11.0606 35.4295C11.1645 35.9562 11.3054 36.4903 11.3722 36.609C11.6022 37.0541 12.025 37.4547 12.522 37.6995C13.0116 37.9443 13.019 37.9443 14.3024 37.9665C15.8825 37.9962 16.3795 37.8849 16.9656 37.3582C17.559 36.8241 17.7741 36.2678 18.0412 34.6135C18.056 34.5096 18.2637 34.3909 18.7682 34.1832C19.1539 34.02 19.5323 33.8717 19.599 33.8494C19.6806 33.8272 19.9254 33.9533 20.2667 34.2055C20.5634 34.4206 21.0085 34.7025 21.2459 34.8212C21.6391 35.0289 21.7503 35.0512 22.3215 35.0437C23.2636 35.0363 23.4936 34.9102 24.6805 33.7381C25.7636 32.6625 25.9565 32.3509 26.0232 31.5572C26.0752 30.8302 25.9342 30.4073 25.3259 29.5097L24.777 28.7086L25.0663 28.0187C25.2221 27.6478 25.3704 27.2843 25.3927 27.2175C25.4224 27.1285 25.593 27.0691 25.9787 27.0024C27.1879 26.8021 27.3882 26.7131 27.5737 26.2754C27.722 25.9267 27.6553 25.5484 27.403 25.2887C27.0247 24.8956 26.8912 24.8807 25.6078 25.1107C23.9758 25.3926 23.9535 25.4074 23.5975 26.4682C23.4639 26.854 23.2117 27.4623 23.0337 27.8258C22.5292 28.8198 22.5441 28.894 23.4046 30.1329C23.9313 30.8821 24.1093 31.2011 24.1093 31.3717C24.1093 31.5646 23.9981 31.7204 23.4639 32.2767C22.7518 33.0111 22.4847 33.1966 22.2028 33.1224C22.1064 33.1002 21.6242 32.796 21.1346 32.4548C20.6376 32.1061 20.1109 31.7871 19.9551 31.7426C19.6881 31.661 19.6287 31.6759 18.7904 32.0616C18.3083 32.2916 17.648 32.5661 17.3142 32.6699C16.7727 32.8479 16.5205 33.0111 16.3647 33.293C16.335 33.3376 16.2163 33.9088 16.0976 34.5541C15.8083 36.0971 15.8602 36.0526 14.4804 36.0526C13.3454 36.0526 13.1971 36.0081 13.0635 35.5853C13.0265 35.4592 12.9226 34.9325 12.8336 34.4206C12.5888 33.0186 12.5517 32.9666 11.4612 32.6031C11.1348 32.4993 10.5636 32.2619 10.1927 32.0839C9.81436 31.9058 9.42861 31.7352 9.33217 31.713C9.06511 31.6462 8.75355 31.802 7.72241 32.5215C7.1512 32.9147 6.72836 33.1595 6.61709 33.1595C6.34261 33.1595 4.82187 31.6388 4.82187 31.3643C4.82187 31.253 5.06667 30.8302 5.45984 30.259C6.42421 28.8792 6.43163 28.8569 5.97912 27.9667C5.83817 27.6997 5.60821 27.1507 5.45984 26.7427C5.08893 25.7264 4.98507 25.541 4.71802 25.4149C4.59191 25.3555 3.99103 25.222 3.37531 25.1107C1.88424 24.8585 1.92875 24.903 1.92875 23.5158C1.92875 22.1137 1.88424 22.1582 3.42724 21.8838C4.07263 21.7651 4.63641 21.6464 4.68834 21.6167C4.97024 21.4609 5.13344 21.2087 5.31148 20.6672C5.41533 20.3334 5.68981 19.6731 5.91977 19.1909C6.4168 18.1079 6.42421 18.1376 5.48951 16.8023C5.12602 16.2756 4.82187 15.7785 4.82187 15.7044C4.82187 15.4521 5.02958 15.1702 5.69722 14.5174C6.57258 13.6643 6.54291 13.6643 7.84852 14.5768C9.08737 15.4373 9.16155 15.4521 10.1556 14.9477C10.5191 14.7697 11.1274 14.5174 11.5131 14.3839C12.5962 14.0204 12.6036 14.0056 12.9078 12.1881C13.0932 11.0976 13.071 10.9418 12.6852 10.5709C12.4404 10.3335 12.0102 10.2668 11.6763 10.4226Z" fill="white"/>
<path d="M13.2119 17.1732C12.4553 17.3438 11.8692 17.5589 11.3203 17.8779C9.69567 18.8274 8.65712 20.2072 8.18977 22.0321C7.96722 22.9075 8.00431 24.3837 8.26395 25.2442C8.93159 27.4697 10.5117 29.0498 12.7372 29.7174C13.5977 29.9771 15.0739 30.0142 15.9493 29.7916C17.8335 29.3094 19.2726 28.1893 20.1999 26.4831C20.7637 25.4519 21.0975 23.6196 20.8156 23.0855C20.5708 22.6107 19.9477 22.4105 19.51 22.6701C19.1985 22.863 19.0501 23.182 18.9833 23.8422C18.8943 24.7027 18.6718 25.3555 18.2415 25.9935C17.7742 26.6982 17.2549 27.1507 16.5056 27.529C14.7178 28.4118 12.6778 28.0928 11.2832 26.6982C9.88855 25.3036 9.56956 23.2636 10.4523 21.4758C10.8307 20.7191 11.3129 20.1701 12.0028 19.7176C12.6481 19.3022 13.2935 19.0871 14.1392 18.9981C14.4804 18.961 14.8365 18.8794 14.9626 18.8052C15.5635 18.4491 15.5783 17.6331 14.9923 17.2177C14.7327 17.0322 13.9686 17.01 13.2119 17.1732Z" fill="white"/>
</svg>
